<svg id="Layer_1" data-name="Layer 1" xmlns="http://www.w3.org/2000/svg" viewBox="0 0 400 120"><defs><style>.cls-1{fill:#3e3e3e;opacity:0.3;}.cls-2{fill:#ffefd5;}.cls-3{fill:#75421a;}.cls-4{fill:#b26e29;}.cls-5{fill:#f4a322;}.cls-6,.cls-8{fill:#f7c844;}.cls-7{fill:#f7ba40;}.cls-10,.cls-7,.cls-8{opacity:0.5;}.cls-10,.cls-9{fill:#fff;}.cls-9{opacity:0.2;}</style></defs><path class="cls-1" d="M376.2,93.25c-1,10.32-6.95,16.22-15.37,17.3-10.26,1.32-161.09,3.36-181,3.36-20.69,0-129.25-1.23-139.12-3.36-8.3-1.79-14.35-7.8-15.37-17.3-.88-8.26-2.61-12.1-2.61-33.1,0-18.48.86-25,2.61-33.1,2-9.2,7.23-15.13,15.37-17.31,9.4-2.52,123.28-3.61,139.12-3.61,18.46,0,171.42,2.75,181,3.61,8.45.76,14.87,7.77,15.37,17.31.74,14.15,1.12,15.56,1.12,34.78C377.32,79.47,377,85.42,376.2,93.25Z"/><path class="cls-2" d="M374.79,90.17c-.38,9.21-6.8,14.94-15,16.69-9.21,2-160.62,3.25-180.06,3.25-20.16,0-128.93-1.26-138.14-3.25-8.77-1.89-13.56-9.46-15-16.69-1.09-5.62-2.54-11.67-2.54-31.93a200.36,200.36,0,0,1,2.54-31.93c2.26-8.8,7-14.59,15-16.69,9.16-2.43,122.7-3.49,138.14-3.49,18,0,170.82,1.61,180.06,3.49,10.07,2,15,7.47,15,16.69,1.44,13.59,1.09,15,1.09,33.55C375.88,76.88,375.1,82.6,374.79,90.17Z"/><path class="cls-3" d="M370.69,85.29c-.35,8.45-5.47,13.5-13.85,15.31s-159.25,3-177.23,3c-18.64,0-127.85-1.62-135.31-3S31.77,95,30.46,85.29c-1-7.27-2.35-10.7-2.35-29.27,0-16.34.78-22.1,2.35-29.27C32.25,18.61,37,13.37,44.3,11.44c8.47-2.22,121-3.19,135.31-3.19,16.63,0,168.61,2,177.23,3.19,7.34,1.06,13.85,6.86,13.85,15.31,1.33,12.46,1,13.76,1,30.76C371.69,73.11,371,78.35,370.69,85.29Z"/><path class="cls-4" d="M369.28,83.65c-.34,8.09-5.89,13.18-13.43,14.67-8.28,1.63-158.75,2.85-176.18,2.85-18.09,0-127.39-2-134.26-2.85C38.05,97.4,33.69,92.7,32,83.65c-1.3-6.92-2.28-10.26-2.28-28.06A172.47,172.47,0,0,1,32,27.53c2-7.73,6.32-12.82,13.43-14.67C53.62,10.73,165.82,9.8,179.67,9.8c16.13,0,176.18,3.06,176.18,3.06,7.41,0,13.43,6.57,13.43,14.67,1.29,11.94,1,13.19,1,29.49C370.25,72,369.55,77,369.28,83.65Z"/><path class="cls-5" d="M369.28,76.81c-.34,7.34-6,13.31-13.43,13.31,0,0-158.75,2.58-176.18,2.58-18.09,0-134.26-2.58-134.26-2.58-7.42,0-12.69-5.7-13.57-13-.77-6.35-2.14-9.63-2.14-25.78,0-14.22.76-19.25,2.28-25.46A17.06,17.06,0,0,1,45.41,12.58C53.62,10.64,165.82,9.8,179.67,9.8c16.13,0,167.76,2.12,176.18,2.78,7.39.58,13,6,13.43,13.31.64,10.89,1,12,1,26.75C370.25,66.21,369.55,70.77,369.28,76.81Z"/><path class="cls-6" d="M369.28,75v1.79c0,7.35-5.85,13.06-13.24,13.64-8.41.67-158.94,2.26-176.37,2.26C161.58,92.71,53.5,91,45.09,90.34A14,14,0,0,1,31.84,77.13V77c.68,7,6.59,10.56,13.57,11.38,8.38,1,116.17,2.59,134.26,2.59,17.43,0,167.77-1.92,176.18-2.59C363.24,87.75,369.28,82.37,369.28,75Z"/><path class="cls-7" d="M370.27,60S274.68,75,30.36,65.84c-.37-3.9-.66-8.76-.66-14.49,0-14.21.77-19.25,2.28-25.46,1.74-7.09,6.31-11.64,13.43-13.31C53.62,10.64,165.82,9.8,179.67,9.8c16.13,0,167.83,1.5,176.18,2.78,7.37,1.13,13,6,13.43,13.31C369.8,34.71,370.31,51.59,370.27,60Z"/><path class="cls-8" d="M367.88,20.47c1.66,1.26,2,13.81,2,13.81-21.79,10.58-88.3,9.19-339.71,5.84.67-8.48,1-10.75,1.83-14.23,1.74-7.09,6.31-11.64,13.43-13.31C53.62,10.64,165.82,9.8,179.67,9.8c16.13,0,168.12,1.59,176.18,2.78C361.59,13.43,365.72,16,367.88,20.47Z"/><path class="cls-9" d="M369.54,30.16c-3.12-3-6.91-6.36-10.66-6.36,0,0-163.43-3.95-182.66-3.95-16.52,0-131,1.19-140.76,3.95a15.12,15.12,0,0,0-3.27,1.34c1.86-6.66,6.36-10.94,13.22-12.56C53.62,10.64,165.83,9.8,179.67,9.8c16.13,0,167.83,1.49,176.18,2.78,7.41,1.15,13,6,13.43,13.31C369.38,27.5,369.46,28.9,369.54,30.16Z"/><path class="cls-10" d="M53.54,27a2.1,2.1,0,0,1-1.37,2.5,37.23,37.23,0,0,1-4.64,1.93,35.06,35.06,0,0,1-4.84,1.21,1.87,1.87,0,0,1-2.41-1.25A17.08,17.08,0,0,1,39,28a21.2,21.2,0,0,1-.67-3.69,2.75,2.75,0,0,1,1.37-2.5,24.56,24.56,0,0,1,4.63-2,36.85,36.85,0,0,1,4.84-1.17,1.85,1.85,0,0,1,2.41,1.24,24.49,24.49,0,0,1,1.18,3.73C53.26,25.5,53.54,27,53.54,27Z"/><path class="cls-10" d="M63.91,22.45a1.12,1.12,0,0,1-1,1.2,20.19,20.19,0,0,1-2.74.5,19,19,0,0,1-2.76.07,1.07,1.07,0,0,1-1.2-1,9.87,9.87,0,0,1-.37-2.06,11.52,11.52,0,0,1,0-2.1,1.46,1.46,0,0,1,1-1.21,13.76,13.76,0,0,1,2.73-.51,20.2,20.2,0,0,1,2.78-.06,1.08,1.08,0,0,1,1.19,1,14.3,14.3,0,0,1,.27,2.18C63.91,21.57,63.91,22.45,63.91,22.45Z"/></svg>