<svg id="Layer_1" data-name="Layer 1" xmlns="http://www.w3.org/2000/svg" viewBox="0 0 500 500"><defs><style>.cls-1{fill:#3e3e3e;opacity:0.3;}.cls-2{fill:#ffefd5;}.cls-3{fill:#75421a;}.cls-4{fill:#b26e29;}.cls-5{fill:#f4a322;}.cls-6,.cls-8{fill:#f7c844;}.cls-7{fill:#f7ba40;}.cls-10,.cls-7,.cls-8{opacity:0.5;}.cls-10,.cls-9{fill:#fff;}.cls-9{opacity:0.2;}</style></defs><path class="cls-1" d="M465.66,290.27c-1.25,12.62-8.49,19.83-18.77,21.15-12.55,1.61-196.85,4.1-221.23,4.1-25.29,0-157.95-1.49-170-4.1-10.14-2.19-17.54-9.53-18.78-21.15-1.07-10.08-3.19-14.78-3.19-40.44,0-22.58,1.05-30.53,3.19-40.44,2.42-11.24,8.83-18.48,18.78-21.15,11.48-3.08,150.63-4.41,170-4.41,22.55,0,209.45,3.36,221.23,4.41,10.32.92,18.16,9.49,18.77,21.15.91,17.28,1.37,19,1.37,42.49C467,273.44,466.6,280.72,465.66,290.27Z"/><path class="cls-2" d="M463.94,286.52c-.46,11.25-8.31,18.24-18.29,20.39-11.25,2.43-196.27,4-220,4-24.64,0-157.55-1.52-168.79-4-10.73-2.32-16.58-11.56-18.3-20.39-1.34-6.87-3.1-14.26-3.1-39a245.3,245.3,0,0,1,3.1-39c2.75-10.75,8.61-17.82,18.3-20.39,11.19-3,149.92-4.26,168.79-4.26,22,0,208.73,2,220,4.26,12.31,2.49,18.29,9.13,18.29,20.39,1.76,16.61,1.33,18.34,1.33,41C465.27,270.28,464.32,277.26,463.94,286.52Z"/><path class="cls-3" d="M458.92,280.56c-.42,10.31-6.68,16.49-16.91,18.7-10.4,2.24-194.6,3.63-216.56,3.63-22.79,0-156.23-2-165.34-3.63s-15.32-6.84-16.91-18.7c-1.2-8.9-2.88-13.08-2.88-35.77,0-20,1-27,2.88-35.77,2.18-9.94,7.95-16.35,16.91-18.7,10.35-2.72,147.89-3.9,165.34-3.9,20.32,0,206,2.39,216.56,3.9,9,1.29,16.91,8.37,16.91,18.7,1.63,15.22,1.23,16.81,1.23,37.58C460.15,265.67,459.27,272.07,458.92,280.56Z"/><path class="cls-4" d="M457.2,278.55c-.41,9.89-7.19,16.1-16.4,17.92-10.13,2-194,3.48-215.28,3.48-22.1,0-155.66-2.43-164.06-3.48-9-1.12-14.32-6.86-16.41-17.92-1.59-8.45-2.78-12.54-2.78-34.29A211.15,211.15,0,0,1,45.05,210c2.47-9.45,7.72-15.67,16.41-17.93,10-2.61,147.14-3.74,164.06-3.74,19.7,0,215.28,3.74,215.28,3.74,9.06,0,16.4,8,16.4,17.93,1.58,14.59,1.19,16.11,1.19,36C458.39,264.28,457.54,270.41,457.2,278.55Z"/><path class="cls-5" d="M457.2,270.19c-.41,9-7.34,16.26-16.4,16.26,0,0-194,3.16-215.28,3.16-22.1,0-164.06-3.16-164.06-3.16-9.06,0-15.5-7-16.58-15.87-.94-7.75-2.61-11.76-2.61-31.5,0-17.37.93-23.53,2.78-31.11,2.13-8.67,7.72-14.22,16.41-16.27,10-2.36,147.14-3.39,164.06-3.39,19.7,0,205,2.58,215.28,3.39,9,.72,15.87,7.3,16.4,16.27.79,13.31,1.19,14.62,1.19,32.69C458.39,257.24,457.54,262.81,457.2,270.19Z"/><path class="cls-6" d="M457.2,268v2.18c0,9-7.14,15.95-16.17,16.67-10.28.81-194.21,2.75-215.51,2.75-22.11,0-154.17-2-164.45-2.88a17.16,17.16,0,0,1-16.19-16.15v-.22c.83,8.62,8,12.91,16.58,13.91,10.24,1.21,142,3.16,164.06,3.16,21.3,0,205-2.34,215.28-3.16C449.82,283.56,457.2,277,457.2,268Z"/><path class="cls-7" d="M458.41,249.68S341.62,268,43.08,256.79c-.46-4.77-.81-10.71-.81-17.71,0-17.37.93-23.52,2.79-31.11,2.12-8.67,7.7-14.22,16.4-16.26,10-2.37,147.14-3.4,164.06-3.4,19.7,0,205.08,1.84,215.28,3.4,9,1.37,15.87,7.29,16.4,16.26C457.84,218.75,458.47,239.37,458.41,249.68Z"/><path class="cls-8" d="M455.49,201.35c2,1.53,2.43,16.88,2.43,16.88C431.3,231.15,350,229.45,42.81,225.36,43.63,215,44,212.23,45.06,208c2.11-8.67,7.7-14.22,16.4-16.26,10-2.37,147.14-3.4,164.06-3.4,19.7,0,205.43,1.94,215.28,3.4C447.81,192.75,452.86,195.85,455.49,201.35Z"/><path class="cls-9" d="M457.53,213.18c-3.82-3.67-8.45-7.77-13-7.77,0,0-199.7-4.82-223.2-4.82-20.18,0-160,1.45-172,4.82a18.89,18.89,0,0,0-4,1.64c2.28-8.14,7.78-13.37,16.16-15.34,10-2.37,147.14-3.4,164.06-3.4,19.71,0,205.08,1.82,215.28,3.4,9.05,1.4,15.87,7.29,16.4,16.26C457.32,209.94,457.43,211.65,457.53,213.18Z"/><path class="cls-10" d="M71.39,209.38a2.55,2.55,0,0,1-1.67,3.05,44.92,44.92,0,0,1-5.67,2.36,41.7,41.7,0,0,1-5.91,1.47,2.27,2.27,0,0,1-2.94-1.52,20.55,20.55,0,0,1-1.61-4.25,26.33,26.33,0,0,1-.82-4.51,3.35,3.35,0,0,1,1.68-3,29,29,0,0,1,5.65-2.4A47.06,47.06,0,0,1,66,199.09,2.26,2.26,0,0,1,69,200.62a29,29,0,0,1,1.45,4.55C71.05,207.5,71.39,209.38,71.39,209.38Z"/><path class="cls-10" d="M84.07,203.77a1.37,1.37,0,0,1-1.23,1.46,24.18,24.18,0,0,1-3.34.61,22.57,22.57,0,0,1-3.38.09,1.32,1.32,0,0,1-1.46-1.19,11.56,11.56,0,0,1-.45-2.52,14.42,14.42,0,0,1,0-2.56,1.79,1.79,0,0,1,1.22-1.47,15.66,15.66,0,0,1,3.34-.63,24.49,24.49,0,0,1,3.39-.07,1.3,1.3,0,0,1,1.45,1.19,14.85,14.85,0,0,1,.33,2.66C84.07,202.7,84.07,203.77,84.07,203.77Z"/></svg>