<svg id="Layer_1" data-name="Layer 1" xmlns="http://www.w3.org/2000/svg" viewBox="0 0 40 12"><defs><style>.cls-1{fill:#3e3e3e;opacity:0.3;}.cls-2{fill:#ffefd5;}.cls-3{fill:#75421a;}.cls-4{fill:#b26e29;}.cls-5{fill:#f4a322;}.cls-6,.cls-8{fill:#f7c844;}.cls-7{fill:#f7ba40;}.cls-10,.cls-7,.cls-8{opacity:0.5;}.cls-10,.cls-9{fill:#fff;}.cls-9{opacity:0.2;}</style></defs><path class="cls-1" d="M37.73,9.36a1.76,1.76,0,0,1-1.55,1.75c-1,.13-16.21.33-18.21.33s-13-.12-14-.33A1.9,1.9,0,0,1,2.42,9.36,18,18,0,0,1,2.16,6,13.58,13.58,0,0,1,2.42,2.7,2.12,2.12,0,0,1,4,1C4.91.71,16.37.6,18,.6,19.82.6,35.22.88,36.18,1A1.75,1.75,0,0,1,37.73,2.7c.08,1.43.11,1.57.11,3.5A27.45,27.45,0,0,1,37.73,9.36Z"/><path class="cls-2" d="M37.59,9.06a1.76,1.76,0,0,1-1.51,1.67c-.92.2-16.16.33-18.12.33s-13-.12-13.9-.33a2,2,0,0,1-1.5-1.67A13.57,13.57,0,0,1,2.3,5.84a19.83,19.83,0,0,1,.26-3.21A2.07,2.07,0,0,1,4.06,1C5,.7,16.41.6,18,.6,19.77.6,35.15.76,36.08,1a1.6,1.6,0,0,1,1.51,1.68A24.05,24.05,0,0,1,37.7,6C37.7,7.72,37.62,8.29,37.59,9.06Z"/><path class="cls-3" d="M37.18,8.56a1.57,1.57,0,0,1-1.4,1.54c-.85.19-16,.3-17.83.3s-12.87-.16-13.62-.3A1.58,1.58,0,0,1,2.94,8.56,13.88,13.88,0,0,1,2.7,5.62a11.81,11.81,0,0,1,.24-2.95A1.88,1.88,0,0,1,4.33,1.13C5.18.91,16.51.81,18,.81c1.67,0,17,.2,17.83.32a1.58,1.58,0,0,1,1.4,1.54,22,22,0,0,1,.1,3.1C37.28,7.34,37.2,7.87,37.18,8.56Z"/><path class="cls-4" d="M37,8.4a1.53,1.53,0,0,1-1.35,1.47c-.83.17-16,.29-17.73.29S5.14,10,4.44,9.87,3.26,9.31,3.09,8.4a11.28,11.28,0,0,1-.23-2.82,17.4,17.4,0,0,1,.23-2.83A1.86,1.86,0,0,1,4.44,1.28C5.27,1.06,16.56,1,18,1c1.63,0,17.73.31,17.73.31A1.41,1.41,0,0,1,37,2.75a20.12,20.12,0,0,1,.1,3C37.13,7.22,37.06,7.73,37,8.4Z"/><path class="cls-5" d="M37,7.71a1.36,1.36,0,0,1-1.35,1.34s-16,.26-17.73.26S4.44,9.05,4.44,9.05A1.39,1.39,0,0,1,3.08,7.74a12.8,12.8,0,0,1-.22-2.59,9.44,9.44,0,0,1,.23-2.56A1.72,1.72,0,0,1,4.44,1.25C5.27,1.05,16.56,1,18,1c1.63,0,16.89.21,17.73.28A1.41,1.41,0,0,1,37,2.59c.07,1.09.1,1.2.1,2.69S37.06,7.1,37,7.71Z"/><path class="cls-6" d="M37,7.53v.18A1.39,1.39,0,0,1,35.7,9.08c-.84.07-16,.23-17.75.23S5.26,9.14,4.41,9.07A1.41,1.41,0,0,1,3.08,7.74v0A1.36,1.36,0,0,0,4.44,8.87c.85.1,11.69.26,13.51.26s16.89-.19,17.73-.26A1.38,1.38,0,0,0,37,7.53Z"/><path class="cls-7" d="M37.13,6s-9.61,1.51-34.2.59a14.55,14.55,0,0,1-.07-1.46,9.44,9.44,0,0,1,.23-2.56A1.72,1.72,0,0,1,4.44,1.25C5.27,1.05,16.56,1,18,1c1.63,0,16.89.15,17.73.28A1.46,1.46,0,0,1,37,2.59C37.09,3.47,37.14,5.17,37.13,6Z"/><path class="cls-8" d="M36.89,2c.17.13.2,1.39.2,1.39C34.9,4.5,28.21,4.36,2.91,4a9,9,0,0,1,.18-1.43A1.72,1.72,0,0,1,4.44,1.25C5.27,1.05,16.56,1,18,1c1.63,0,16.92.16,17.73.28A1.45,1.45,0,0,1,36.89,2Z"/><path class="cls-9" d="M37.06,3A1.77,1.77,0,0,0,36,2.38S19.54,2,17.61,2c-1.67,0-13.18.12-14.17.4a1.62,1.62,0,0,0-.33.13A1.7,1.7,0,0,1,4.44,1.25C5.27,1.05,16.56,1,18,1c1.63,0,16.89.15,17.73.28A1.45,1.45,0,0,1,37,2.59C37,2.75,37.05,2.89,37.06,3Z"/><path class="cls-10" d="M5.26,2.7A.2.2,0,0,1,5.12,3a3.23,3.23,0,0,1-.46.2,4.48,4.48,0,0,1-.49.12.19.19,0,0,1-.24-.13,1.52,1.52,0,0,1-.13-.35,1.81,1.81,0,0,1-.07-.37.27.27,0,0,1,.14-.25A3.09,3.09,0,0,1,4.33,2a4.09,4.09,0,0,1,.49-.11A.18.18,0,0,1,5.06,2a2.9,2.9,0,0,1,.12.38C5.23,2.55,5.26,2.7,5.26,2.7Z"/><path class="cls-10" d="M6.31,2.24a.12.12,0,0,1-.11.12,1.38,1.38,0,0,1-.27.05,1.5,1.5,0,0,1-.28,0,.11.11,0,0,1-.12-.1,1.76,1.76,0,0,1,0-.21,1.25,1.25,0,0,1,0-.21.17.17,0,0,1,.11-.12,1.31,1.31,0,0,1,.27-.05h.28a.12.12,0,0,1,.12.1A1.17,1.17,0,0,1,6.3,2C6.31,2.15,6.31,2.24,6.31,2.24Z"/></svg>