<svg id="Layer_1" data-name="Layer 1" xmlns="http://www.w3.org/2000/svg" viewBox="0 0 456.41 149.57"><defs><style>.cls-1{fill:#3e3e3e;opacity:0.3;}.cls-2{fill:#ffefd5;}.cls-3{fill:#75421a;}.cls-4{fill:#b26e29;}.cls-5{fill:#f4a322;}.cls-6,.cls-8{fill:#f7c844;}.cls-7{fill:#f7ba40;}.cls-10,.cls-7,.cls-8{opacity:0.5;}.cls-10,.cls-9{fill:#fff;}.cls-9{opacity:0.2;}</style></defs><path class="cls-1" d="M443.08,115.38c-1.25,12.62-8.49,19.83-18.77,21.15-12.55,1.61-196.85,4.1-221.23,4.1-25.29,0-158-1.49-170-4.1C22.94,134.34,15.54,127,14.3,115.38c-1.08-10.08-3.19-14.78-3.19-40.44,0-22.58,1.05-30.53,3.19-40.44C16.72,23.26,23.13,16,33.08,13.35c11.48-3.08,150.63-4.41,170-4.41,22.55,0,209.45,3.36,221.23,4.41,10.32.92,18.16,9.49,18.77,21.15.9,17.28,1.36,19,1.36,42.49C444.44,98.55,444,105.83,443.08,115.38Z"/><path class="cls-2" d="M441.36,111.63c-.46,11.25-8.32,18.25-18.29,20.4-11.25,2.42-196.27,4-220,4-24.64,0-157.55-1.53-168.79-4-10.73-2.32-16.58-11.57-18.3-20.4-1.34-6.87-3.11-14.26-3.11-39A244.33,244.33,0,0,1,16,33.6c2.75-10.76,8.61-17.83,18.3-20.4,11.19-3,149.92-4.26,168.79-4.26,22,0,208.73,2,220,4.26,12.3,2.49,18.29,9.13,18.29,20.4,1.76,16.6,1.33,18.33,1.33,41C442.69,95.39,441.74,102.37,441.36,111.63Z"/><path class="cls-3" d="M436.34,105.67c-.42,10.31-6.68,16.49-16.91,18.7C409,126.61,224.83,128,202.87,128c-22.79,0-156.23-2-165.34-3.63s-15.32-6.84-16.91-18.7c-1.2-8.89-2.88-13.08-2.88-35.77,0-20,1-27,2.88-35.77,2.18-9.94,8-16.34,16.91-18.7,10.35-2.72,147.89-3.9,165.34-3.9,20.32,0,206,2.39,216.56,3.9,9,1.29,16.91,8.37,16.91,18.7,1.63,15.22,1.23,16.81,1.23,37.58C437.57,90.78,436.69,97.18,436.34,105.67Z"/><path class="cls-4" d="M434.62,103.66c-.41,9.89-7.19,16.11-16.4,17.92-10.13,2-194,3.48-215.29,3.48-22.09,0-155.65-2.43-164-3.48-9-1.12-14.32-6.86-16.41-17.92-1.59-8.45-2.78-12.53-2.78-34.29a211.15,211.15,0,0,1,2.78-34.28c2.47-9.45,7.72-15.67,16.41-17.93,10-2.61,147.13-3.74,164.05-3.74,19.71,0,215.29,3.74,215.29,3.74,9,0,16.4,8,16.4,17.93,1.58,14.59,1.19,16.11,1.19,36C435.81,89.39,435,95.52,434.62,103.66Z"/><path class="cls-5" d="M434.62,95.3c-.41,9-7.35,16.27-16.4,16.27,0,0-194,3.15-215.29,3.15-22.09,0-164-3.15-164-3.15-9.06,0-15.51-7-16.58-15.88-.94-7.75-2.61-11.76-2.61-31.5,0-17.37.93-23.52,2.78-31.11,2.12-8.67,7.72-14.21,16.41-16.27,10-2.36,147.13-3.39,164.05-3.39,19.71,0,205,2.59,215.29,3.39,9,.72,15.86,7.3,16.4,16.27.79,13.31,1.19,14.62,1.19,32.69C435.81,82.35,435,87.92,434.62,95.3Z"/><path class="cls-6" d="M434.62,93.12v2.19c0,9-7.14,16-16.17,16.66-10.28.81-194.21,2.75-215.52,2.75-22.1,0-154.17-2-164.44-2.88A17.16,17.16,0,0,1,22.3,95.69v-.22c.83,8.62,8.05,12.91,16.58,13.91,10.24,1.21,142,3.16,164.05,3.16,21.31,0,205-2.34,215.29-3.16C427.24,108.67,434.62,102.09,434.62,93.12Z"/><path class="cls-7" d="M435.83,74.79S319,93.12,20.49,81.9c-.45-4.77-.8-10.71-.8-17.71,0-17.37.93-23.52,2.78-31.11,2.12-8.67,7.71-14.22,16.41-16.26,10-2.37,147.14-3.4,164.05-3.4,19.71,0,205.09,1.84,215.29,3.4,9,1.38,15.87,7.29,16.4,16.26C435.26,43.86,435.89,64.48,435.83,74.79Z"/><path class="cls-8" d="M432.91,26.46c2,1.54,2.43,16.88,2.43,16.88-26.63,12.92-107.9,11.22-415.11,7.13.82-10.36,1.2-13.13,2.24-17.39,2.12-8.67,7.71-14.22,16.41-16.26,10-2.37,147.14-3.4,164.05-3.4,19.71,0,205.43,1.94,215.29,3.4C425.23,17.86,430.28,21,432.91,26.46Z"/><path class="cls-9" d="M435,38.29c-3.82-3.67-8.45-7.77-13-7.77,0,0-199.7-4.82-223.2-4.82-20.18,0-160,1.45-172,4.82a19,19,0,0,0-4,1.64C25,24,30.5,18.79,38.88,16.82c10-2.37,147.14-3.4,164.06-3.4,19.71,0,205.08,1.82,215.28,3.4,9,1.4,15.87,7.29,16.4,16.26C434.74,35.05,434.85,36.76,435,38.29Z"/><path class="cls-10" d="M48.81,34.49a2.55,2.55,0,0,1-1.67,3,44.92,44.92,0,0,1-5.67,2.36,41.7,41.7,0,0,1-5.91,1.47,2.27,2.27,0,0,1-2.94-1.52A20.24,20.24,0,0,1,31,35.6a25.2,25.2,0,0,1-.82-4.51A3.36,3.36,0,0,1,31.86,28a29.45,29.45,0,0,1,5.66-2.4,46.09,46.09,0,0,1,5.92-1.43,2.26,2.26,0,0,1,2.94,1.52,29,29,0,0,1,1.45,4.55C48.47,32.61,48.81,34.49,48.81,34.49Z"/><path class="cls-10" d="M61.49,28.88a1.37,1.37,0,0,1-1.23,1.46,24.18,24.18,0,0,1-3.34.61,22.57,22.57,0,0,1-3.38.09,1.31,1.31,0,0,1-1.46-1.19,11.56,11.56,0,0,1-.45-2.52,14.42,14.42,0,0,1,0-2.56,1.79,1.79,0,0,1,1.22-1.47,16.31,16.31,0,0,1,3.34-.63,24.49,24.49,0,0,1,3.39-.07A1.31,1.31,0,0,1,61,23.79a14.85,14.85,0,0,1,.33,2.66C61.49,27.81,61.49,28.88,61.49,28.88Z"/></svg>