<svg id="Layer_1" data-name="Layer 1" xmlns="http://www.w3.org/2000/svg" viewBox="0 0 500 500"><defs><style>.cls-1{fill:#3e3e3e;opacity:0.3;}.cls-2{fill:#ffefd5;}.cls-3{fill:#75421a;}.cls-4{fill:#b26e29;}.cls-5{fill:#f4a322;}.cls-6,.cls-8{fill:#f7c844;}.cls-7{fill:#f7ba40;}.cls-10,.cls-7,.cls-8{opacity:0.5;}.cls-10,.cls-9{fill:#fff;}.cls-9{opacity:0.2;}</style></defs><path class="cls-1" d="M466,371.4c-4,40.12-27,63.06-59.71,67.26-39.9,5.11-72.18,13-149.71,13-80.43,0-111.36-4.77-149.71-13-32.24-7-55.78-30.32-59.72-67.26-3.42-32.07-10.14-47-10.14-128.62,0-71.83,3.34-97.1,10.14-128.64C54.9,78.4,75.28,55.36,106.91,46.89c36.54-9.79,88.11-14,149.71-14,71.74,0,112.27,10.69,149.71,14,32.84,2.93,57.76,30.18,59.71,67.25,2.88,55,4.34,60.46,4.34,135.16C470.38,317.86,469,341,466,371.4Z"/><path class="cls-2" d="M460.58,359.45c-1.47,35.81-26.45,58-58.18,64.88-35.79,7.7-70.33,12.59-145.88,12.59-78.36,0-110.09-4.86-145.86-12.59C76.55,417,58,387.54,52.48,359.45c-4.26-21.84-9.88-45.35-9.88-124.08,0-69.29,9.88-124.1,9.88-124.1,8.75-34.2,27.36-56.69,58.18-64.87C146.25,37,196.51,32.86,256.52,32.86c69.9,0,110,6.26,145.88,13.54,39.14,7.93,58.18,29.05,58.18,64.87,5.6,52.82,4.23,58.33,4.23,130.39C464.81,307.8,461.78,330,460.58,359.45Z"/><path class="cls-3" d="M444.61,340.49C443.26,373.31,423.36,393,390.82,400c-33.08,7.13-65,11.55-134.87,11.55-72.47,0-105.91-6.3-134.87-11.55-29.24-5.3-48.72-21.73-53.8-59.48-3.81-28.27-9.14-41.57-9.14-113.76,0-63.51,3-85.89,9.14-113.76,7-31.62,25.3-52,53.8-59.47C154,44.84,200.46,41.09,256,41.09c64.63,0,101.36,7.59,134.87,12.41,28.51,4.09,53.79,26.63,53.79,59.47,5.19,48.42,3.92,53.48,3.92,119.54C448.53,293.14,445.73,313.5,444.61,340.49Z"/><path class="cls-4" d="M439.14,334.11c-1.32,31.46-22.86,51.23-52.17,57-32.2,6.34-63.06,11.07-130.81,11.07-70.28,0-104.09-7.75-130.8-11.07-28.6-3.56-45.53-21.82-52.17-57-5.08-26.88-8.87-39.86-8.87-109a669.68,669.68,0,0,1,8.87-109C81,86,97.72,66.19,125.36,59c31.92-8.3,77-11.9,130.8-11.9C318.84,47.11,387,59,387,59c28.81,0,52.17,25.52,52.17,57,5,46.41,3.8,51.25,3.8,114.58C442.94,288.72,440.22,308.24,439.14,334.11Z"/><path class="cls-5" d="M439.14,307.53c-1.32,28.54-23.36,51.73-52.17,51.73,0,0-63.06,10-130.81,10a896.73,896.73,0,0,1-130.8-10c-28.82,0-49.31-22.14-52.73-50.5-3-24.65-8.31-37.4-8.31-100.18,0-55.25,3-74.82,8.87-99,6.74-27.56,24.53-45.2,52.17-51.73,31.92-7.53,77-10.79,130.8-10.79,62.68,0,98.1,8.22,130.81,10.79,28.72,2.27,50.47,23.22,52.17,51.73,2.51,42.34,3.8,46.51,3.8,104C442.94,266.34,440.22,284.05,439.14,307.53Z"/><path class="cls-6" d="M439.14,300.59v7c0,28.54-22.73,50.72-51.44,53-32.69,2.59-63.78,8.77-131.54,8.77-70.29,0-99.35-6.5-132-9.19-28.7-2.36-49.27-23.1-51.49-51.36v-.69c2.64,27.4,25.6,41.05,52.73,44.25,32.57,3.84,60.51,10,130.8,10,67.76,0,98.11-7.44,130.81-10C415.68,350.05,439.14,329.13,439.14,300.59Z"/><path class="cls-7" d="M443,185.85c-94.49,86.16-254.55,98.93-376.1,79-1.47-15.16-2.58-34-2.58-56.32,0-55.23,3-74.82,8.87-98.94,6.74-27.57,24.52-45.22,52.17-51.72,31.93-7.53,77-10.8,130.8-10.8,62.68,0,98.37,5.83,130.81,10.8,28.64,4.38,50.47,23.19,52.17,51.72C441.17,143.92,443.17,153.09,443,185.85Z"/><path class="cls-8" d="M433.71,88.57c-85.8,67.13-248,78-367.65,76.38,2.61-33,3.82-41.77,7.13-55.31,6.73-27.58,24.52-45.22,52.17-51.72,31.93-7.53,77-10.8,130.8-10.8,62.68,0,99.48,6.16,130.81,10.8C409.27,61.22,425.33,71.09,433.71,88.57Z"/><path class="cls-9" d="M440.18,126.21c-12.13-11.67-26.88-24.7-41.43-24.7,0,0-81.26-15.36-156-15.36-64.19,0-118,4.64-156,15.36A60.32,60.32,0,0,0,74,106.72c7.26-25.89,24.74-42.53,51.38-48.8,31.93-7.53,77-10.8,130.82-10.8,62.68,0,98.35,5.76,130.79,10.8,28.79,4.47,50.47,23.18,52.18,51.72C439.53,115.91,439.87,121.35,440.18,126.21Z"/><path class="cls-10" d="M157,114.11a8.11,8.11,0,0,1-5.33,9.71,143.88,143.88,0,0,1-18,7.51A133.67,133.67,0,0,1,114.81,136a7.22,7.22,0,0,1-9.36-4.85,65,65,0,0,1-5.11-13.52,81.3,81.3,0,0,1-2.61-14.33,10.69,10.69,0,0,1,5.33-9.71c4.19-2.55,10.41-5.11,18-7.61a145.12,145.12,0,0,1,18.83-4.58,7.21,7.21,0,0,1,9.36,4.85c2.35,5.7,2.35,6.37,4.59,14.46C155.88,108.14,157,114.11,157,114.11Z"/><path class="cls-10" d="M197.27,96.27a4.34,4.34,0,0,1-3.9,4.66,78.29,78.29,0,0,1-10.62,1.94,74.6,74.6,0,0,1-10.76.29,4.19,4.19,0,0,1-4.64-3.79,37.5,37.5,0,0,1-1.43-8,45.9,45.9,0,0,1,0-8.16,5.74,5.74,0,0,1,3.9-4.68,50.4,50.4,0,0,1,10.61-2,80.49,80.49,0,0,1,10.78-.23,4.18,4.18,0,0,1,4.63,3.79,51.39,51.39,0,0,1,1,8.47C197.29,92.87,197.27,96.27,197.27,96.27Z"/></svg>